<svg xmlns="http://www.w3.org/2000/svg"viewBox="0 0 3508 4961"><defs><style>.cls-1 {fill: #00b1f4;fill-rule: evenodd;}</style></defs><path id="J32" class="cls-1" d="M2352,1957q16.5,99.99,33,200H2225c-14.65,0-49.19,4.68-58-3q-12-97.485-24-195c0.33-.67.67-1.33,1-2h208Zm-126,39c-2,1.33-4,2.67-6,4-3.23,11.43-5.09,89.06,1,96,4.15,6.05,89.88,8.37,97,2,8.85-6.27,6-86.53,2-99C2296.54,1990.96,2254.91,1995.85,2226,1996Z"/><path id="J31" class="cls-1" onclick="changePanoImg(31)" d="M2648,1546H2411q-2.505-12.495-5-25h-8c-0.68-10.19,4.08-18.73,3-28q-19.005-92.985-38-186l1-1q110.985,1.005,222,2Q2616.99,1427,2648,1546Zm-189-205c-3.61,2.6-7.68,4.18-9,9-3.07,11.21-.51,87.06,3,91,4.15,6.05,89.88,8.37,97,2,7.69-5.24,7.6-93.65,0-99C2539.25,1336.39,2478.19,1340.79,2459,1341Z"/><path id="J30" class="cls-1" onclick="changePanoImg(30)" d="M1019,1304q-14,79.995-28,160c-3.231,15.45,1.112,48.23-3,57-3.514-.65-3.486-1.4-6,1-2.527,6.32-1.487,17.54-6,22H740q28.5-119.985,57-240h222Zm-175,37c-3.152,2.19-5.007,2.48-7,6-8.639,10.25-2.816,90.03,3,98,13.026,1.91,87.441,4.58,95-1,6.684-4.93,7.844-93.4,1-100C929.36,1337.6,860.116,1340.65,844,1341Z"/><path id="J29" class="cls-1" onclick="changePanoImg(29)" d="M1013,2156q14.5-101.985,29-204,108.99,1.005,218,2-9.495,101.49-19,203Q1127.015,2156.505,1013,2156Zm75-160c-3.7,2.68-5.92,3.56-8,8v92c2.33,1.33,4.67,2.67,7,4,9.95,2.82,86.27,3.18,92-1,9.29-6.77,6.23-91.71,0-101C1155.21,1990.73,1115.74,1995.85,1088,1996Z"/><path id="J28" class="cls-1" onclick="changePanoImg(28)" d="M1528,2837q-4.005,184.485-8,369-175.98-.495-352-1,16.005-184.485,32-369Q1363.98,2836.5,1528,2837Zm-219,151c-4.08,2.12-8.97,3-11,7-5.87,11.59-.63,92.69,5,96,10.43,8.55,93.63,3.96,98-5,4.71-11.45,1.08-92.77-4-96C1386.71,2983.45,1326.37,2987.65,1309,2988Z"/><path id="J27" class="cls-1" onclick="changePanoImg(27)" d="M1877,2837q8.505,184.98,17,370-180.975-.495-362-1,4.005-184.98,8-370Q1708.48,2836.5,1877,2837Zm-197,151c-3.49,2.18-5.83,2.32-8,6-5.66,6.43-4.51,80.12-2,93,8.45,10.53,81.1,9.57,99,5,1.33-2,2.67-4,4-6,3.15-11.24,2.81-86.53-2-92C1763.99,2983.89,1699.79,2987.67,1680,2988Z"/><path id="J26" class="cls-1" onclick="changePanoImg(26)" d="M1898,2837h241c12.82,0,79.51-1.76,85,3q16.005,134.985,32,270c2.85,21.55,14.55,83.4,9,98q-174.48-.495-349-1Q1907,3022.02,1898,2837Zm182,151q-4.005,3-8,6c-7.41,11.12-3.91,82.83,0,96,19.46,7.7,85.1,9.48,101-2,5.85-23.47,5.54-74.16-1-96C2149.71,2983.75,2109.01,2987.85,2080,2988Z"/></svg>