<svg xmlns="http://www.w3.org/2000/svg"viewBox="0 0 3508 4961"><defs><style>.cls-1 {fill: #00b1f4;fill-rule: evenodd;}</style></defs><path id="J1" class="cls-1" onclick="changePanoImg(1)" d="M2010,2509q7.995,362.46,16,725-350.97-1.995-702-4,26.49-361.965,53-724Zm-371,276q-4.005,2.505-8,5c-3.76,12.93-4.57,93.99,3,99,9.88,6.55,93.2,2.17,97-4,6.83-8.17,3.8-85.32,0-96C1710.56,2779.41,1666.62,2784.81,1639,2785Z"/><<path id="J25" class="cls-1" onclick="changePanoImg(25)" d="M2193,2231q-5.505-116.49-11-233,109.485,1.005,219,2,10.005,115.995,20,232Q2307.015,2231.505,2193,2231Zm73-180c-4.22,2.72-6.71,3.19-9,8-4.12,9.98-1.04,92.03,3,95,5.71,4.2,82.41,3.77,95,1,8.37-11.6,10.26-86.65,2-101C2334.32,2046.22,2294.07,2050.85,2266,2051Z"/><path id="J24" class="cls-1" onclick="changePanoImg(24)" d="M2470,1240q90.495,0.495,181,1c11.98,0,58.4-2.87,64,2q22.5,143.985,45,288-128.985-.495-258-1-1.995-15-4-30c-4.95-.81-2.98.67-5-3-4.47-18.03,1.88-46.99-2-70Q2480.5,1333.505,2470,1240Zm101,57c-3.7,2.68-5.92,3.56-8,8-6.34,12.6-3.2,77.53,0,92,12.23,8.12,78.05,7.81,98,4,7.05-9.68,11.4-94.16,0-101C2652.36,1292.9,2588.52,1296.78,2571,1297Z"/><path id="J23" class="cls-1" onclick="changePanoImg(23)" d="M2125,1221q6,123.99,12,248h-41q0.495,39,1,78H1960q-0.495,10.005-1,20-22.005-.495-44-1-0.495-10.005-1-20h-44V1220Q1997.485,1220.495,2125,1221Zm-163,76c-4.22,2.72-6.71,3.19-9,8-3.34,11.71-2.06,91.27,3,95,9.1,6.72,82.11,3.79,95,1,1.67-2.33,3.33-4.67,5-7,4.95-18.28,3.24-74.94-1-92C2037.56,1290.52,1988.6,1296.74,1962,1297Z"/><path id="J22" class="cls-1" onclick="changePanoImg(22)" d="M1596,1219q127.98,0.495,256,1v326H1672v19h-47q-0.495-10.005-1-20h-44Q1588,1382.01,1596,1219Zm88,78c-3.47,2.8-5.9,3.61-8,8-4.45,7.81-2,26.66-2,38,0,14.19-4.52,44.17,2,54,4.54,6.85,81.32,7.45,98,4,7.28-10.02,11.31-93.42,0-101C1763.32,1292.44,1703.05,1296.78,1684,1297Z"/><path id="J21" class="cls-1" onclick="changePanoImg(21)" d="M1581,1219q-7.995,162.99-16,326h-41q-0.495,10.005-1,20-21.495-.495-43-1-0.495-9.495-1-19-91.995-.495-184-1,13.005-135.99,26-272h8q2.505-27,5-54Q1457.5,1218.495,1581,1219Zm-183,78q-4.5,3.495-9,7c-2.57,26.48-5.01,68.44,1,93,11.92,8.35,81.51,7.35,98,4,10.96-15.24,11.05-86.78,0-102C1463.69,1292.5,1426.05,1296.88,1398,1297Z"/><path id="J20" class="cls-1" onclick="changePanoImg(20)" d="M940,1492q-2,15-4,30-127.988-.495-256-1v-3q29-141.99,58-284H981v6l-35,213c-2.471,14.57,3.417,25.13,2,39h-8ZM793,1297c-3.152,2.19-5.007,2.48-7,6-8.644,10.12-3.84,93.69,5,98,9.863,4.16,92.09.97,95-3,5.273-7.2,2.913-86.05,1-95C869.628,1290.8,820.782,1296.73,793,1297Z"/><path id="J19" class="cls-1" onclick="changePanoImg(19)" d="M1015,1994q109.485,0.495,219,1v1q-12,114.99-24,230-112.995-.495-226-1Q999.5,2109.515,1015,1994Zm60,57c-4.22,2.72-6.71,3.19-9,8-5.3,12.91-1.88,86.67,3,95,19.68,6.26,73.34,5.15,95,1,8.37-11.6,10.26-86.65,2-101C1143.32,2046.22,1103.07,2050.85,1075,2051Z"/><path id="J18" class="cls-1" onclick="changePanoImg(18)" d="M2221,3383q7.5,159.48,15,319-183.48-1.005-367-2-0.495-158.49-1-317c0.33-.67.67-1.33,1-2Q2044.98,3382.005,2221,3383Zm-190,80c-4.91,2.77-10.26,4.26-12,10-5.06,16.69-.44,85.41,5,94,23.09,5.73,71.9,5.7,95,0,5.51-7.78,9.27-94.84,1-101C2110.31,3458.79,2049.12,3462.63,2031,3463Z"/><path id="J17" class="cls-1" onclick="changePanoImg(17)" d="M1495,3379l357,3q-0.495,158.985-1,318-185.475-1.005-371-2Q1487.5,3538.52,1495,3379Zm139,84q-4.995,2.505-10,5c-3.03,10.57-5.48,88.19,0,96,6.67,9.5,91.5,5.91,101,0,3.21-11.37,5.08-88.07-1-95C1717.19,3458.96,1653.54,3462.66,1634,3463Z"/><path id="J16" class="cls-1" onclick="changePanoImg(16)" d="M1093,3696q15.495-159.48,31-319l350,3q-8.505,158.985-17,318Q1275.02,3697,1093,3696Zm153-233q-4.995,2.505-10,5c-3.7,13.02-4.63,93.93,3,99,8.78,5.83,83.5,2.94,95,0,5.26-7.76,9.67-89.32,2-98C1329,3458.91,1265.69,3462.66,1246,3463Z"/></svg>