<svg xmlns="http://www.w3.org/2000/svg"viewBox="0 0 3508 4961"><defs><style>.cls-1 {fill: #00b1f4;}.cls-1, .cls-2 {fill-rule: evenodd;}.cls-2 {fill: #00b6f8;}</style></defs><path id="J15" class="cls-1" onclick="changePanoImg(15)" d="M2607,3342c-0.29-13.02-7.52-80.46-13-86-2-.33-4-0.67-6-1q-1.5-17.505-3-35,2.505-6.495,5-13-19.005-144.48-38-289,147.99-.495,296-1,37.995,211.98,76,424Q2765.51,3341.5,2607,3342Zm96-275q-4.005,2.505-8,5c-3.03,10.57-5.48,88.2,0,96,6.68,9.52,91.47,5.89,101,0,4.66-16.68,5.25-85.56-2-98C2770.36,3063.07,2731.79,3066.88,2703,3067Z"/><path id="J14" class="cls-1" onclick="changePanoImg(14)" d="M2848,2395q46.5,237.975,93,476c-1-.33-2-0.67-3-1q-195.48,1.005-391,2-4.995-37.5-10-75c-4.24-.31-3.96.06-6-2-6.55-15.98,3.46-27.94,1-44q-4.005-31.5-8-63-19.5-145.485-39-291l1-1Q2666.975,2395.505,2848,2395Zm-195,166c-2.33,1.67-4.67,3.33-7,5-6.38,23.06-5.69,78.19,2,98,13.79,2.82,92.6,5.52,98-3,5.67-6.45,4.52-81.05,2-94-2.33-1.67-4.67-3.33-7-5Q2697.005,2561.505,2653,2561Z"/><path id="J13" class="cls-1" onclick="changePanoImg(13)" d="M2348,2488H2127q-8.505-131.985-17-264h211Q2334.5,2355.985,2348,2488Zm-176-208c-4.22,2.72-6.71,3.19-9,8-8.39,15.07-1.68,88.02,5,97,26.48,2.57,68.44,5.01,93-1,11.42-15.92,9.44-78.81,3-100C2241.83,2275.68,2200.93,2279.85,2172,2280Z"/><path id="J12" class="cls-1" onclick="changePanoImg(12)" d="M2403,1768q160.485-.495,321-1,36,182.475,72,365h-2q-171.99.495-344,1-3.495-27.99-7-56c-5.22-.42-3.98.66-6-3-3.64-13.96,3.21-25.02,1-39q-4.005-30.495-8-61Q2416.5,1871.01,2403,1768Zm128,117c-2.33,1-4.67,2-7,3-5.89,14.63-9.07,94.55,4,101,13.67,7.12,91.49,3.2,96-6,6.06-12.02,3.44-78.3,0-92C2606.86,1878.89,2558.53,1884.72,2531,1885Z"/><path id="J11" class="cls-1" onclick="changePanoImg(11)" d="M2317,2196H2108q-7.5-112.485-15-225c0.33-.67.67-1.33,1-2q18-.495,36-1c0.33-3,.67-6,1-9h162Q2305,2077.485,2317,2196Zm-167-216c-4.23,2.42-9.1,3.37-11,8-5.47,13.36-2.4,78.81,1,92,15.99,11.39,78.77,9.45,100,3,4.14-10.74,8.84-86.14,1-96C2234.85,1975.66,2170.28,1979.62,2150,1980Z"/><path id="J10" class="cls-1" onclick="changePanoImg(10)" d="M2386,1646c0.19-8.59-2.3-36.97-8-36-0.67-.33-1.33-0.67-2-1-5.27-70.41-8.91-145.31-23-216h165c12.94,0,50.04-4.01,55,2q22.5,124.995,45,250l-1,1H2386Zm46-211c-2.49,2.22-4.24,2.84-6,6-5.51,8.96-3.56,79.67-1,93,12.11,9.02,88.56,9.97,102,1,6.64-24.56,3.55-68.39,1-95C2506.31,1430.24,2462.06,1434.8,2432,1435Z"/><path id="J9" class="cls-1" onclick="changePanoImg(9)" d="M2034,1380q6,106.995,12,214h-28c-0.15,23.57,1.36,46.13,2,70H1873q-0.495,9.495-1,19h-40v-19h-18q-1.005-141.99-2-284h222Zm-189,55c-2,1.86-3.43,2.55-5,5-5.49,7.55-3,27.55-3,40,0,14.08-4.71,45.44,2,55,5.05,7.2,81.34,6.93,96,4,10.59-8.04,9.84-85.35,4-101C1917.88,1428.46,1872.14,1434.81,1845,1435Z"/><path id="J8" class="cls-1" onclick="changePanoImg(8)" d="M1797,1664h-55c0.71,7.14,1.92,20.61-4,19q-19.5.495-39,1-0.495-10.005-1-20h-20q-0.495-7.005-1-14-134.985,1.005-270,2-0.495,6.495-1,13-55.5.495-111,1,13.5-141.99,27-284,236.475-.495,473-1Q1796.005,1522.48,1797,1664Zm-314-229c-3.39,2.48-5.04,2.9-7,7v92c11.49,8.3,86.82,10.33,101,2,5.61-15.46,7.04-94.05-5-100Q1527.51,1435.505,1483,1435Z"/><path id="J7" class="cls-1" onclick="changePanoImg(7)" d="M1002,1397l-32,190q2,12.495,4,25c-2.666.33-5.334,0.67-8,1q-3,18.495-6,37H794c-14.251.17-49.86,6.84-61-1q27.5-125.985,55-252h214Zm-185,38c-13.357,12.88-11.818,77.1-6,100,10.4,7.01,94.021,9.22,101-1,5.111-7.61,3-25.72,3-38,0-15.21,4.577-44.99-2-56C908.182,1431.94,834.425,1434.63,817,1435Z"/><path id="J6" class="cls-1" onclick="changePanoImg(6)" d="M716,1773H878c15.032,0,49.734-5.24,60,2-6.994,21.18-1.116,37.8-3,60-2.666.33-5.334,0.67-8,1q-26,151.98-52,304-169.484.495-339,1,43-183.48,86-367Q669,1773.505,716,1773Zm-21,112q-3.5,2.505-7,5c-6.734,9.29-4.276,89.04,1,98,13.516,4.39,91.829,6.95,98-3,6.658-7.51,3.772-85.87,0-96C766.557,1879.41,722.62,1884.81,695,1885Z"/><path id="J5" class="cls-1" onclick="changePanoImg(5)" d="M1012,2198q16.5-117.99,33-236,98.49,0.495,197,1c3.63,40.37-3.16,91.29-10,133q-4.995,50.49-10,101Q1117.015,2197.5,1012,2198Zm73-218c-4.32,2.44-8.98,3.38-11,8-7.41,16.93-.55,88.24,6,97,17.88,1.93,89.16,4.93,96-5,7.41-11.12,3.91-82.83,0-96C1154.07,1975.77,1113.66,1979.85,1085,1980Z"/><path id="J4" class="cls-1" onclick="changePanoImg(4)" d="M1195,2495q-112.995.495-226,1,19.5-133.98,39-268h214Q1208.5,2361.485,1195,2495Zm-139-200c-3.63,2.14-5.73,2.46-8,6-6.85,9.99-4.26,80.13-1,94,15.36,10.94,86.67,11.04,102,0,5.69-24.05,6.68-83.13-5-99Q1100.005,2295.505,1056,2295Z"/><path id="J3" class="cls-1"  onclick="changePanoImg(3)"d="M819,2468q-25.5,149.985-51,300c-4.328,21.41-10.72,100-20,111q-192.482.495-385,1v-3l111-473q178.482-.495,357-1c-6.556,22.76,3.806,41.52-3,65h-9Zm-260,93-7,6c-3.753,6-3.749,86.99,0,93,5.535,9.01,84.5,8.11,99,4,8.172-19.39,7.63-71.42,3-96l-7-6Q603,2561.505,559,2561Z"/><path id="J2" class="cls-1" onclick="changePanoImg(2)" d="M729,3000q-30,176.475-60,353-152.985.495-306,1v-3q46.5-212.475,93-425,142.986-.495,286-1c-3.776,28.47-.038,46.69-3,75H729Zm-217,67c-4.311,2.46-8.969,3.37-11,8-5.473,12.48-2.237,79.45,1,92,11.454,8.34,95.407,11.43,102-2,5.908-11.57,2.9-91.66-4-96C589.543,3062.43,529.484,3066.64,512,3067Z"/><path id="J1" class="cls-2"  onclick="changePanoImg(1)"d="M1968,2846c6.74,5.34,5.51,73.35,6,89q4.005,126.48,8,253-334.965,1.005-670,2,13.005-170.985,26-342Q1652.97,2847,1968,2846Zm-395,130-8,8c-0.28,17.67-4.12,83.35,3,92,5.25,7.37,80.25,6.92,95,4q3-3.495,6-7v-91C1651.75,2969.45,1600.87,2975.71,1573,2976Z"/></svg>