<svg id="Skupina_1" data-name="Skupina 1" xmlns="http://www.w3.org/2000/svg" width="3508" height="4961" viewBox="0 0 3508 4961">
  <metadata><?xpacket begin="﻿" id="W5M0MpCehiHzreSzNTczkc9d"?>
<x:xmpmeta xmlns:x="adobe:ns:meta/" x:xmptk="Adobe XMP Core 5.6-c138 79.159824, 2016/09/14-01:09:01        ">
   <rdf:RDF xmlns:rdf="http://www.w3.org/1999/02/22-rdf-syntax-ns#">
      <rdf:Description rdf:about=""/>
   </rdf:RDF>
</x:xmpmeta>
                                                                                                    
                                                                                                    
                                                                                                    
                                                                                                    
                                                                                                    
                                                                                                    
                                                                                                    
                                                                                                    
                                                                                                    
                                                                                                    
                                                                                                    
                                                                                                    
                                                                                                    
                                                                                                    
                                                                                                    
                                                                                                    
                                                                                                    
                                                                                                    
                                                                                                    
                                                                                                    
                           
<?xpacket end="w"?></metadata>
<defs>
    <style>
      .cls-1 {
        fill: #d5d5d5;
        fill-rule: evenodd;
      }
    </style>
  </defs>
  <path id="RelaxJ31" class="cls-1" d="M2445,1826c-3.33.33-6.67,0.67-10,1q-1.995,10.005-4,20h-76c0.75-8.21,3.27-13.22,2-21-5.43.04-11.95-.56-15-3,12.63-28.42-5.53-65.96-7-93h-9c8.82-20.05-.47-70.7-8-92h-39v2q-1.995,8.505-4,17h-38v-19h-36c-0.25,4.49-2.38,19.56-5,18q-19.995.495-40,1v-19h-59c0.11-22.32,4.46-50.98,2-70q-4.005-33-8-66,94.995,0.495,190,1c0.09-4.32,1.16-14.69,4-13,6.63-5.96,86.92-1.58,96,1,2.46,30.68,11.66,50.75,16,83q129.48-.495,259-1v2q8.505,32.49,17,65h-5q-125.985-.495-252-1a129.52,129.52,0,0,0,9,70q1.005,13.5,2,27C2434.14,1767.73,2442.63,1793.43,2445,1826Z" transform="translate(58.5 325.015)"/>
  <path id="RelaxJ30" class="cls-1" d="M1115,1562c-0.31,10.73-1.34,23.8,5,28,8.7,5.77,83.63,2.99,95,0,4.8-7.2,3.3-17.18,6-28h55q0.495,13.005,1,26h14c3.04,20.25,1.44,34.26-6,50q-25.5-.495-51-1v19c-10.15.33-36.15,3.35-42-2q-1.5-8.505-3-17h-38v19h-41q-1.5-9.495-3-19h-32l-9,66c-6.11.44-9.62,1.77-12,6-5.34,5.83-4.29,101.14,0,109,0.71,1.3,4.79,5.07,6,7h-6c-0.03-3.87,1.64-3.51-4-4-4.63,3.03-14.02,2.86-21,4-0.45,7.69-.48,12.16,1,19-10.1-.03-65.738,1.87-69-2q-2-9-4-18H942c1.364-33.2,10.207-61.05,16-93v-19c7.08-19.94,16.358-52.22,8-75H718q8-33.495,16-67H920c12.1,0,59.356,2.9,65-2,6.166-12.19,1.073-33.87,5-43,5.042-11.72,5.7-20.22,9-36,16.14-.31,93.69-5.51,102,2,4,8,5.51,27.28,1,32-3.09,3.05-4.95,1.3-7,6-2.48,8.17-3.25,24.52,1,34Q1105.495,1562.505,1115,1562Z" transform="translate(58.5 325.015)"/>
  <path id="SchodisteP4NP" class="cls-1" d="M2046,2547q202.98,1.005,406,2,22.005,128.985,44,258-15,.495-30,1-1.5,4.995-3,10h-51c-5.94,1.57-6.28,5.29-15,6,0.77-6.2.51-11.11-2-16h-87c-2.08,15.06-25.68,10.73-42,10-2.67,1.33-5.33,2.67-8,4q-0.495-7.005-1-14H2067v-11c-2.33.33-4.67,0.67-7,1,0.81-22.57-4.73-42.85-1-68q140.49,0.495,281,1c1.72-11.73,3.33-13.56,3-27q-141.99-.495-284-1Q2052.505,2625.015,2046,2547Zm295,17c-4.22,2.72-6.71,3.19-9,8-8.12,14.35-2.77,92.32,7,97,14.59,4.16,89.46,2.59,94-5,5.79-6.98,4.56-78.81,2-92C2423.3,2556.74,2366.8,2563.61,2341,2564Z" transform="translate(58.5 325.015)"/>
  <path id="SchodisteL4NP" class="cls-1" d="M1371,2702H1072c-0.8,10.16.48,16.93,2,26q148.485,1.005,297,2c0.79,15.32,1.5,27.04,0,42q0.495,7.995,1,16c-2.13,6.69-5.54,8.44-6,18H1212c-12.8,0-47.9-4.31-53,2-0.33,3.33-.67,6.67-1,10h-45c-0.27-4.99-1.17-9.51-4-12h-87c-0.61,6.82-.95,11.44,1,17-10.23-.12-11.99-3.43-18-5H962q-2-6.495-4-13H920c0.145-26.78,5.414-49.83,11-73q13-93.495,26-187h9q152.985,0.495,306,1c19.57,0,97.35-5.45,108,2Q1375.5,2625,1371,2702Zm-266-138c-4.22,2.72-6.71,3.19-9,8-6.3,14.41-3.48,76.19,0,92,15.51,11.09,76.57,9.64,99,4,7.68-11.41,8.56-88.13,1-101C1173.32,2559.22,1133.07,2563.85,1105,2564Z" transform="translate(58.5 325.015)"/>
</svg>
