<svg id="Skupina_1" data-name="Skupina 1" xmlns="http://www.w3.org/2000/svg" width="3508" height="4961" viewBox="0 0 3508 4961">
  <metadata><?xpacket begin="﻿" id="W5M0MpCehiHzreSzNTczkc9d"?>
<x:xmpmeta xmlns:x="adobe:ns:meta/" x:xmptk="Adobe XMP Core 5.6-c138 79.159824, 2016/09/14-01:09:01        ">
   <rdf:RDF xmlns:rdf="http://www.w3.org/1999/02/22-rdf-syntax-ns#">
      <rdf:Description rdf:about=""/>
   </rdf:RDF>
</x:xmpmeta>
                                                                                                    
                                                                                                    
                                                                                                    
                                                                                                    
                                                                                                    
                                                                                                    
                                                                                                    
                                                                                                    
                                                                                                    
                                                                                                    
                                                                                                    
                                                                                                    
                                                                                                    
                                                                                                    
                                                                                                    
                                                                                                    
                                                                                                    
                                                                                                    
                                                                                                    
                                                                                                    
                           
<?xpacket end="w"?></metadata>
<defs>
    <style>
      .cls-1 {
        fill: #fff;
      }

      .cls-1, .cls-2 {
        fill-rule: evenodd;
      }

      .cls-2 {
        fill: #00b7fb;
      }
    </style>
  </defs>
  <path id="vytah" class="cls-1" d="M1124,1488c16.02-.36,82.83-4.07,91,2,7.46,5.55,4.89,89.55,0,98-21.01,5.91-84.02,7.09-98-4-2.57-25.94-5.48-70.7,2-93C1120.67,1490,1122.33,1489,1124,1488Zm27,8q-6,6.495-12,13l3,3q3.495-3,7-6,0.495,7.5,1,15c1.67-.33,3.33-0.67,5-1v-14q3.495,3,7,6l3-3Q1157.995,1502.505,1151,1496Zm29,0v15q-3.495-3-7-6c-1,.67-2,1.33-3,2v3q6,5.505,12,11h2q5.505-6,11-12c-1-1.33-2-2.67-3-4q-3.495,3-7,6-0.495-7.5-1-15h-4Zm-36,31c-0.67,2-1.33,4-2,6,1.33,1,2.67,2,4,3,1.33-.33,2.67-0.67,4-1,0.33-1.67.67-3.33,1-5-0.67-1-1.33-2-2-3h-5Zm40,0c-0.67,2.33-1.33,4.67-2,7,1,0.33,2,.67,3,1s2,0.67,3,1c1-1.33,2-2.67,3-4-0.67-1.67-1.33-3.33-2-5h-5Zm-32,38h6l-3-9c1.67,0.33,3.33.67,5,1v-3c-1.93-5.97-2.88-13-8-16h-10c-6.07,3.12-6.65,10.44-9,17,2.32,1.82,2.83.89,5,2-0.67,2.67-1.33,5.33-2,8h6v18c1.33-.33,2.67-0.67,4-1q0.495-8.505,1-17,0.495,9,1,18c1.33-.33,2.67-0.67,4-1v-17Zm28-28c-3.81,3.47-9.94,18.37-1,22,0.33-.67.67-1.33,1-2q0.495,12.495,1,25c5.67,1.05,3.59-.17,10,1l1-1v-24c3.94,0.21,2.49,1.66,5-1,2.83-6.07.26-15.03-2-19Q1187.5,1537.505,1180,1537ZM918,2820q45,0.495,90,1c1.33,2,2.67,4,4,6v89c-7.26,8.84-77.655,8.4-95,5C905.833,2912.32,908.811,2828.87,918,2820Zm1493,0q45,0.495,90,1c1.33,2,2.67,4,4,6,3.27,11.64,2.11,89.28-3,93-6.85,4.99-80.27,3.32-92,1C2398.83,2912.32,2401.81,2828.87,2411,2820ZM944,2853h5v-15l7,6c1-.67,2-1.33,3-2v-3q-6.5-5.505-13-11l-12,12c0.333,1.33.667,2.67,1,4h1l8-6v15Zm31-25q-0.5,7.5-1,15l-7-6c-1,.67-2,1.33-3,2v3q6,5.505,12,11h2l12-12c-1-1.33-2-2.67-3-4l-7,6h-1C979.671,2835.8,980.524,2829.9,975,2828Zm1462,25h5q0.495-7.005,1-14c2,1.67,4,3.33,6,5,1-.67,2-1.33,3-2v-3q-6-5.505-12-11h-2q-5.505,6-11,12c0.33,1.33.67,2.67,1,4h1q4.005-3,8-6v15Zm31-25q-0.495,7.5-1,15-3.495-3-7-6c-1,.67-2,1.33-3,2v3q6,5.505,12,11h2l12-12c-1-1.33-2-2.67-3-4q-3.495,3-7,6h-1C2472.67,2835.8,2473.52,2829.9,2468,2828ZM938,2859c-0.667,1.33-1.333,2.67-2,4,1.745,2.82,2.21,3.23,5,5,1.667-1.33,3.333-2.67,5-4-0.333-1.33-.667-2.67-1-4C942.667,2859.67,940.333,2859.33,938,2859Zm40,0c-2.414,4.71-1.914,5.76,2,9,1.333-.33,2.667-0.67,4-1,0.333-1.67.667-3.33,1-5l-2-3h-5Zm1453,0c-0.67,1.33-1.33,2.67-2,4,1.75,2.82,2.21,3.23,5,5,1.67-1.33,3.33-2.67,5-4-0.33-1.33-.67-2.67-1-4C2435.67,2859.67,2433.33,2859.33,2431,2859Zm40,0c-2.41,4.71-1.91,5.76,2,9,1.33-.33,2.67-0.67,4-1,0.33-1.67.67-3.33,1-5-0.67-1-1.33-2-2-3h-5ZM936,2897c-0.332,6.37-.654,14.58,2,18,3.773-1.13,1.03-2.16,4,0,1.333-.33,2.667-0.67,4-1v-17h6q-1.5-4.995-3-10c1.667,0.67,3.333,1.33,5,2v-4c-2.1-8.13-5.377-21.09-18-15-11.186,5.71-4.809,19.17-6,27h6Zm38-28-4,3v19c1.333-.33,2.667-0.67,4-1h1q0.5,12.495,1,25h1c5.5-1.7,3.877.21,9-1v-2q0.5-11.505,1-23h1c2.559,2.21.579,1.2,4,1C993.2,2872.89,991.378,2867.87,974,2869Zm1455,28v18c5.37-.95,3.72-1.62,8,0,0.67-.33,1.33-0.67,2-1v-17h6v-1l-3-9c1.67,0.67,3.33,1.33,5,2v-4c-2.28-7.98-5.24-21.13-18-15-5.73,2.93-7.75,10.83-8,19h3c1.39-1.92.1-.6,2-2q-1.5,4.995-3,10h6Zm38-28c-1.33,1-2.67,2-4,3v19c1.33-.33,2.67-0.67,4-1h1q0.495,12.495,1,25h1c2.81-1.19,3.41-5.1,4-2,3.87,1.38,2.1,1.75,6,0q0.495-12.495,1-25v3c1.33-.33,2.67-0.67,4-1C2486.2,2872.89,2484.38,2867.87,2467,2869Z" transform="translate(45.689 174)"/>
  <path id="zachodyDamske4NP" class="cls-2" d="M2259,2921c13.59,3.91,34.97,3.11,53,3-0.33,2.67-.67,5.33-1,8h-51C2259.67,2928.33,2259.33,2924.67,2259,2921Zm3,23h107c2.35,24.79,15.74,60.19,10,84h-59q-1.995,7.005-4,14-19.995-.495-40-1v-1c2-3.01,2.18-7.44,2-13-2.33-.33-4.67-0.67-7-1Q2266.5,2985.005,2262,2944Zm13,105h109q4.5,35.49,9,71-55.5-.495-111-1Q2278.505,3084.005,2275,3049Z" transform="translate(45.689 174)"/>
  <path id="zachodyPanske4NP" class="cls-2" d="M1066,2832c9.9,11.52-3.31,72.55,6,89,22.67,7.51,62.02,3.14,90,3l-3,30h-12c-0.3,4.13-.66,11.61-3,14h-45q-1.5-7.005-3-14-21.495-.495-43-1Q1059.495,2892.505,1066,2832Zm-17,150h107q-3.495,42.99-7,86h-8c-0.23,6.58-.52,8.21,1,13-0.33.67-.67,1.33-1,2q-16.995-.495-34-1-1.5-7.005-3-14h-64Q1044.5,3025.01,1049,2982Zm97,108q-1.5,17.505-3,35c-19.74.19-102.3,4.18-110-2q1.995-16.5,4-33h109Z" transform="translate(45.689 174)"/>
</svg>
