<svg xmlns="http://www.w3.org/2000/svg" width="3508" height="4961" viewBox="0 0 3508 4961">
  <metadata><?xpacket begin="﻿" id="W5M0MpCehiHzreSzNTczkc9d"?>
<x:xmpmeta xmlns:x="adobe:ns:meta/" x:xmptk="Adobe XMP Core 5.6-c138 79.159824, 2016/09/14-01:09:01        ">
   <rdf:RDF xmlns:rdf="http://www.w3.org/1999/02/22-rdf-syntax-ns#">
      <rdf:Description rdf:about=""/>
   </rdf:RDF>
</x:xmpmeta>
                                                                                                    
                                                                                                    
                                                                                                    
                                                                                                    
                                                                                                    
                                                                                                    
                                                                                                    
                                                                                                    
                                                                                                    
                                                                                                    
                                                                                                    
                                                                                                    
                                                                                                    
                                                                                                    
                                                                                                    
                                                                                                    
                                                                                                    
                                                                                                    
                                                                                                    
                                                                                                    
                           
<?xpacket end="w"?></metadata>
<defs>
    <style>
      .cls-1 {
        fill: #d0d0d0;
        fill-rule: evenodd;
      }
    </style>
  </defs>
  <path id="VstupniHala" class="cls-1" d="M2851,3042h-20q-3,10.005-6,20H2723v-3c2.37-6.28,1.8-9.57,1-17-29.96,6.43-168.83-31.15-156,22h-6v-1c2.96-7.51,2.87-11.52,2-20-11.32,2.09-43.89-5.16-53,3q-1.995,8.505-4,17c-14,.36-44.8,3.98-53-3,3.05-5.97,2.08-10.68,2-17q-62.49,1.005-125,2-1.005,10.005-2,20h-54v-1a40.554,40.554,0,0,0,1-19h-84c-18.78-2.91-50.54-3.67-68,1q-1.005,9-2,18h-51v-3q0.495-7.995,1-16-53.49,1.005-107,2,6,178.485,12,357-9.495,1.005-19,2-0.495,6-1,12h-87q-0.495,9-1,18h-47c0.67-18.52,3.51-45-9-51-13.21-6.62-87.68-3.56-103,0-8.55,12.21-2.48,34.11-7,52h-25q-1.5-9.495-3-19-45.495.495-91,1-1.005-10.5-2-21h-21q3-116.49,6-233c4.25-27.42,6.88-93.07,2-120q-116.49,1.005-233,2-0.495,9-1,18c-12.58.32-48.45,4.81-56-2q-1.995-8.505-4-17H1117v20h-52c-0.57-7.71-2.78-14.98-6-20q-43.995.495-88,1c-16.465-5.39-76.239-9-99-4-13.949,3.07-35.972,5-59,5,0.026,6.29-1.7,10.95,0,19q-50.495-.495-101-1-2.5-9-5-18H689q5-27.495,10-55c-4.176-10.47,9.314-40.58,9-58l34-191,835-3q1.995-73.995,4-148,123.495-.495,247-1,59.49,0.495,119,1l6,147c207.86-.04,416.56-1.99,625-2q79.485-.495,159-1c13.24,0,48.79-5.1,57,2q4.005,21.495,8,43c6.17,28.39,9.76,52.21,15,80,3.3,17.48,6.87,41.65,14,56q4.005,30,8,60Q2845,3010,2851,3042ZM1194,2810q-4.5,2.505-9,5c-7.44,23.96-7.33,81.3-1,107,11.79,8.6,107.5,11.18,114-2,7.02-12.69,2.6-97.94-3-107C1268.62,2805.27,1225.68,2809.88,1194,2810Zm979,0q-4.995,3-10,6c-5.62,20.17-5.13,97.13,4,110,20.93,5.71,84.87,5.21,106,0,9.43-14.07,9.33-87.65,4-109C2258.07,2803.16,2203.94,2809.72,2173,2810Z" transform="translate(-16 -534)"/>
</svg>
