<svg id="Vrstva_1" data-name="Vrstva 1" xmlns="http://www.w3.org/2000/svg" viewBox="0 0 306.1 36.85"><defs><style>.cls-1{fill:#009fdf;}</style></defs><title>fim-uhk-cz_hor</title><g id="text_fim_doubleline"><path d="M54.63,11.19v-6h1.54v6a2.57,2.57,0,1,0,5.13,0v-6h1.55v6a3.78,3.78,0,0,1-4.11,4.08A3.78,3.78,0,0,1,54.63,11.19Z"/><path d="M71.67,9.92v5.17H70.15V10.25A1.43,1.43,0,0,0,68.67,8.7a3.27,3.27,0,0,0-2.22,1v5.35H64.94v-5a8.79,8.79,0,0,0-.32-2.31l1-.34.51,1.29a4.23,4.23,0,0,1,3-1.37A2.45,2.45,0,0,1,71.67,9.92Z"/><path d="M73.68,5.28a.93.93,0,0,1,1-1,.94.94,0,0,1,1,1,.92.92,0,0,1-1,1A.91.91,0,0,1,73.68,5.28Zm.21,2.63,1.51-.53v7.71H73.89Z"/><path d="M84.58,7.58l-3.16,7.51H79.86L76.69,7.58h1.67l2.34,6.24L83,7.58Z"/><path d="M91.8,11.9H86.61a2.46,2.46,0,0,0,2.73,2.19,5.35,5.35,0,0,0,2-.48l.38,1a5.7,5.7,0,0,1-2.69.72,3.75,3.75,0,0,1-4.06-4c0-2.46,1.54-4,3.7-4C91.45,7.35,92.32,9.62,91.8,11.9Zm-5.19-1.16h3.9c.09-1.35-.57-2.26-1.79-2.26S86.79,9.3,86.61,10.74Z"/><path d="M93.87,10.28a10,10,0,0,0-.32-2.49l1-.36.54,1.69a2.71,2.71,0,0,1,2.31-1.77,2.48,2.48,0,0,1,1,.2L97.86,9.2a1.74,1.74,0,0,0-.78-.2,2,2,0,0,0-1.7,1.35v4.74H93.87Z"/><path d="M99.06,14.13l4.09-5.4H99l.41-1.15h5.64v1l-4.1,5.4h4.31l-.41,1.15H99.06Z"/><path d="M106.69,5.28a1,1,0,0,1,1.94,0,1,1,0,0,1-1.94,0Zm.21,2.63,1.52-.53v7.71H106.9Z"/><path d="M111.25,13.2V8.73h-1.32V7.58h1.32V5.79l1.52-.55V7.58h2.5V8.73h-2.5v4.2a.92.92,0,0,0,1,1,2.64,2.64,0,0,0,1.32-.42l.42,1.11a4.08,4.08,0,0,1-2.11.66A2,2,0,0,1,111.25,13.2Z"/><path d="M124.24,14.84a2.27,2.27,0,0,1-1.36.48,1.25,1.25,0,0,1-1.31-1.17,3.71,3.71,0,0,1-2.74,1.17,2,2,0,0,1-2.3-2c0-1.53,1.62-2.85,4.71-2.64v-.56a1.35,1.35,0,0,0-1.5-1.5,6.4,6.4,0,0,0-2.46.62l-.42-1.13A7.47,7.47,0,0,1,120,7.35,2.45,2.45,0,0,1,122.76,10V13.4c0,.45.16.66.48.66a1.13,1.13,0,0,0,.64-.24Zm-3-1.68V11.7c-2-.16-3.19.44-3.19,1.46,0,.6.46,1,1.2,1A2.61,2.61,0,0,0,121.24,13.16Z"/><path d="M129.19,5.22h1.55V9.48H136V5.22h1.53v9.87H136V10.77h-5.22v4.32h-1.55Z"/><path d="M139.81,10.28a10.33,10.33,0,0,0-.31-2.49l1-.36L141,9.12a2.74,2.74,0,0,1,2.31-1.77,2.5,2.5,0,0,1,1,.2L143.8,9.2A1.7,1.7,0,0,0,143,9a2,2,0,0,0-1.69,1.35v4.74h-1.52Z"/><path d="M152.52,14.84a2.3,2.3,0,0,1-1.37.48,1.24,1.24,0,0,1-1.3-1.17,3.72,3.72,0,0,1-2.75,1.17c-1.35,0-2.31-.74-2.29-2,0-1.53,1.62-2.85,4.71-2.64v-.56a1.35,1.35,0,0,0-1.5-1.5,6.36,6.36,0,0,0-2.46.62l-.42-1.13a7.47,7.47,0,0,1,3.18-.75A2.44,2.44,0,0,1,151,10V13.4c0,.45.17.66.48.66a1.16,1.16,0,0,0,.65-.24Zm-3-1.68V11.7c-2-.16-3.2.44-3.2,1.46,0,.6.47,1,1.2,1A2.65,2.65,0,0,0,149.52,13.16Z"/><path d="M152.94,11.4c0-2.38,1.42-4.05,3.54-4.05a4.13,4.13,0,0,1,1.92.47V4.53L159.91,4v8.57a8,8,0,0,0,.32,2.31l-1,.36-.5-1.25a3.3,3.3,0,0,1-2.52,1.31C154.47,15.32,152.94,14,152.94,11.4ZM158.4,13V9a3.24,3.24,0,0,0-1.64-.47c-1.33,0-2.25,1.11-2.25,2.85s.9,2.66,2.09,2.66A2.3,2.3,0,0,0,158.4,13Z"/><path d="M168.45,11.9h-5.19A2.46,2.46,0,0,0,166,14.09a5.35,5.35,0,0,0,2-.48l.38,1a5.7,5.7,0,0,1-2.69.72,3.75,3.75,0,0,1-4.06-4c0-2.46,1.54-4,3.7-4C168.1,7.35,169,9.62,168.45,11.9Zm-5.19-1.16h3.9c.09-1.35-.57-2.26-1.79-2.26S163.44,9.3,163.26,10.74Z"/><path d="M170,11.34c0-2.49,1.5-4,3.69-4a6.38,6.38,0,0,1,2.47.54L175.8,9A4.78,4.78,0,0,0,174,8.61c-1.38,0-2.36,1-2.36,2.73s1,2.72,2.39,2.72a4.93,4.93,0,0,0,2-.48l.39,1.12a6.1,6.1,0,0,1-2.55.62C171.52,15.32,170,13.82,170,11.34Z"/><path d="M181.69,5.22h1.55v9.87h-1.55Zm8.19,9.87H188l-4.29-4.75L188,5.22h1.71l-4.29,5Z"/><path d="M190.93,10.28a10.33,10.33,0,0,0-.31-2.49l1-.36.54,1.69a2.74,2.74,0,0,1,2.31-1.77,2.5,2.5,0,0,1,1,.2l-.59,1.65a1.7,1.7,0,0,0-.78-.2,2,2,0,0,0-1.69,1.35v4.74h-1.52Z"/><path d="M203.64,14.84a2.3,2.3,0,0,1-1.37.48,1.24,1.24,0,0,1-1.3-1.17,3.72,3.72,0,0,1-2.75,1.17c-1.35,0-2.31-.74-2.29-2,0-1.53,1.62-2.85,4.71-2.64v-.56a1.35,1.35,0,0,0-1.5-1.5,6.36,6.36,0,0,0-2.46.62l-.42-1.13a7.47,7.47,0,0,1,3.18-.75A2.44,2.44,0,0,1,202.15,10V13.4c0,.45.17.66.48.66a1.16,1.16,0,0,0,.65-.24Zm-3-1.68V11.7c-2-.16-3.2.44-3.2,1.46,0,.6.47,1,1.2,1A2.65,2.65,0,0,0,200.64,13.16Zm-2.72-6.65-.39-1L201,4.05l.45,1.29Z"/><path d="M204.76,13.58v-9L206.28,4V13.4c0,.45.16.66.49.66a1.11,1.11,0,0,0,.65-.24l.36,1a2.54,2.54,0,0,1-1.53.48C205.35,15.32,204.76,14.75,204.76,13.58Z"/><path d="M208.65,11.34c0-2.47,1.42-4,3.61-4s3.63,1.52,3.63,4-1.42,4-3.63,4S208.65,13.8,208.65,11.34Zm5.64,0c0-1.9-.8-2.86-2-2.86s-2,1-2,2.86.78,2.85,2,2.85S214.29,13.23,214.29,11.34Z"/><path d="M224.22,7.58l-3.17,7.51h-1.56l-3.16-7.51H218l2.34,6.24,2.28-6.24Z"/><path d="M231.43,11.9h-5.19A2.46,2.46,0,0,0,229,14.09a5.36,5.36,0,0,0,2.06-.48l.37,1a5.66,5.66,0,0,1-2.68.72,3.76,3.76,0,0,1-4.07-4,3.64,3.64,0,0,1,3.71-4C231.09,7.35,232,9.62,231.43,11.9Zm-5.19-1.16h3.9c.09-1.35-.57-2.26-1.78-2.26S226.42,9.3,226.24,10.74ZM227,6.51l-.39-1,3.48-1.41.45,1.29Z"/><path d="M54.87,21.22h6.52l-.46,1.29H56.41v3.35h3.8v1.2h-3.8v4H54.87Z"/><path d="M69.79,30.84a2.27,2.27,0,0,1-1.36.48,1.25,1.25,0,0,1-1.31-1.17,3.71,3.71,0,0,1-2.74,1.17,2,2,0,0,1-2.3-2c0-1.53,1.63-2.85,4.71-2.64v-.56a1.35,1.35,0,0,0-1.5-1.5,6.4,6.4,0,0,0-2.46.62l-.42-1.13a7.51,7.51,0,0,1,3.18-.75A2.45,2.45,0,0,1,68.31,26V29.4c0,.45.16.66.48.66a1.13,1.13,0,0,0,.64-.24Zm-3-1.68V27.7c-2-.16-3.19.44-3.19,1.46,0,.6.46,1,1.2,1A2.61,2.61,0,0,0,66.79,29.16Z"/><path d="M71,20.53,72.51,20V31.09H71Zm6.8,10.56H76.05l-3.38-3.9L76,23.58h1.65l-3.3,3.55Z"/><path d="M85.09,31.24,84.58,30a4.27,4.27,0,0,1-3,1.37A2.44,2.44,0,0,1,79,28.75V23.58h1.51v4.84A1.43,1.43,0,0,0,82,30a3.26,3.26,0,0,0,2.21-1V23.58h1.52v5a8.69,8.69,0,0,0,.31,2.31Z"/><path d="M88,29.58v-9L89.54,20V29.4c0,.45.16.66.49.66a1.11,1.11,0,0,0,.64-.24l.37,1a2.55,2.55,0,0,1-1.54.48C88.61,31.32,88,30.75,88,29.58Z"/><path d="M92.89,29.2V24.73H91.57V23.58h1.32V21.79l1.52-.55v2.34h2.5v1.15h-2.5v4.2a.92.92,0,0,0,1,1,2.64,2.64,0,0,0,1.33-.42l.41,1.11a4.08,4.08,0,0,1-2.11.66A2,2,0,0,1,92.89,29.2Z"/><path d="M105.88,30.84a2.27,2.27,0,0,1-1.36.48,1.25,1.25,0,0,1-1.31-1.17,3.71,3.71,0,0,1-2.74,1.17,2,2,0,0,1-2.3-2c0-1.53,1.62-2.85,4.71-2.64v-.56a1.35,1.35,0,0,0-1.5-1.5,6.4,6.4,0,0,0-2.46.62L98.5,24.1a7.47,7.47,0,0,1,3.18-.75A2.45,2.45,0,0,1,104.4,26V29.4c0,.45.16.66.48.66a1.13,1.13,0,0,0,.64-.24Zm-3-1.68V27.7c-2-.16-3.19.44-3.19,1.46,0,.6.46,1,1.2,1A2.61,2.61,0,0,0,102.88,29.16Z"/><path d="M110.68,21.28a1,1,0,1,1,1,.95A.92.92,0,0,1,110.68,21.28Zm.21,2.63,1.52-.53v7.71h-1.52Z"/><path d="M121.53,25.92v5.17H120V26.25a1.43,1.43,0,0,0-1.48-1.55,3.27,3.27,0,0,0-2.22,1v5.35h-1.52v-5a8.69,8.69,0,0,0-.31-2.31l1-.34.51,1.29a4.23,4.23,0,0,1,3-1.37A2.45,2.45,0,0,1,121.53,25.92Z"/><path d="M125.47,22.6v1h2.18v1.15h-2.18v6.36H124V24.73h-1.23V23.58H124V22.45A2.3,2.3,0,0,1,126.34,20a4.63,4.63,0,0,1,2.06.48L128,21.67a2.94,2.94,0,0,0-1.32-.34A1.14,1.14,0,0,0,125.47,22.6Z"/><path d="M128.2,27.34c0-2.47,1.43-4,3.62-4s3.63,1.52,3.63,4-1.43,4-3.63,4S128.2,29.8,128.2,27.34Zm5.64,0c0-1.9-.79-2.86-2-2.86s-2,1-2,2.86.78,2.85,2,2.85S133.84,29.23,133.84,27.34Z"/><path d="M137.28,26.28a10,10,0,0,0-.32-2.49l1-.36.54,1.69a2.71,2.71,0,0,1,2.31-1.77,2.48,2.48,0,0,1,1,.2l-.58,1.65a1.74,1.74,0,0,0-.78-.2,2,2,0,0,0-1.7,1.35v4.74h-1.51Z"/><path d="M154.17,25.92v5.17h-1.52V26.25c0-.95-.54-1.55-1.29-1.55a2.76,2.76,0,0,0-1.93,1v5.35h-1.52V26.25c0-.95-.54-1.55-1.27-1.55a2.66,2.66,0,0,0-1.92,1v5.37H143.2v-5a8.55,8.55,0,0,0-.31-2.31l1-.34.47,1.27a3.77,3.77,0,0,1,2.76-1.35,2.2,2.2,0,0,1,2,1.28,3.91,3.91,0,0,1,2.72-1.28A2.38,2.38,0,0,1,154.17,25.92Z"/><path d="M163.54,30.84a2.27,2.27,0,0,1-1.36.48,1.25,1.25,0,0,1-1.31-1.17,3.71,3.71,0,0,1-2.74,1.17,2,2,0,0,1-2.3-2c0-1.53,1.62-2.85,4.71-2.64v-.56a1.35,1.35,0,0,0-1.5-1.5,6.4,6.4,0,0,0-2.46.62l-.42-1.13a7.47,7.47,0,0,1,3.18-.75A2.45,2.45,0,0,1,162.06,26V29.4c0,.45.16.66.48.66a1.13,1.13,0,0,0,.64-.24Zm-3-1.68V27.7c-2-.16-3.19.44-3.19,1.46,0,.6.46,1,1.2,1A2.61,2.61,0,0,0,160.54,29.16Z"/><path d="M165.27,29.2V24.73H164V23.58h1.32V21.79l1.51-.55v2.34h2.51v1.15h-2.51v4.2a.92.92,0,0,0,1,1,2.64,2.64,0,0,0,1.32-.42l.42,1.11a4.11,4.11,0,0,1-2.12.66A2,2,0,0,1,165.27,29.2Z"/><path d="M170.89,21.28a1,1,0,1,1,1,.95A.92.92,0,0,1,170.89,21.28Zm.21,2.63,1.52-.53v7.71H171.1Z"/><path d="M175,20.53l1.52-.51V31.09H175Zm6.8,10.56h-1.74l-3.38-3.9L180,23.58h1.65l-3.3,3.55Z"/><path d="M190.05,23.58l-2.9,7.33c-.85,2.19-1.75,3.3-3.84,3.72l-.39-1.21a3.59,3.59,0,0,0,2.52-2.06l-3.33-7.78h1.65l2.36,6.3,2.29-6.3Z"/><path d="M202,30.84a2.27,2.27,0,0,1-1.36.48,1.25,1.25,0,0,1-1.31-1.17,3.71,3.71,0,0,1-2.74,1.17,2,2,0,0,1-2.3-2c0-1.53,1.62-2.85,4.71-2.64v-.56a1.35,1.35,0,0,0-1.5-1.5,6.4,6.4,0,0,0-2.46.62l-.42-1.13a7.47,7.47,0,0,1,3.18-.75A2.45,2.45,0,0,1,200.52,26V29.4c0,.45.16.66.48.66a1.13,1.13,0,0,0,.64-.24Zm-3-1.68V27.7c-2-.16-3.19.44-3.19,1.46,0,.6.46,1,1.2,1A2.61,2.61,0,0,0,199,29.16Z"/><path d="M217.9,25.92v5.17h-1.51V26.25c0-.95-.54-1.55-1.29-1.55a2.78,2.78,0,0,0-1.94,1v5.35h-1.51V26.25c0-.95-.54-1.55-1.28-1.55a2.67,2.67,0,0,0-1.92,1v5.37h-1.51v-5a8.64,8.64,0,0,0-.32-2.31l1-.34.46,1.27a3.77,3.77,0,0,1,2.76-1.35,2.22,2.22,0,0,1,2,1.28,3.87,3.87,0,0,1,2.71-1.28A2.37,2.37,0,0,1,217.9,25.92Z"/><path d="M227.28,30.84a2.3,2.3,0,0,1-1.37.48,1.24,1.24,0,0,1-1.3-1.17,3.72,3.72,0,0,1-2.75,1.17c-1.35,0-2.31-.74-2.29-2,0-1.53,1.62-2.85,4.71-2.64v-.56a1.35,1.35,0,0,0-1.5-1.5,6.36,6.36,0,0,0-2.46.62l-.42-1.13a7.47,7.47,0,0,1,3.18-.75A2.44,2.44,0,0,1,225.79,26V29.4c0,.45.17.66.48.66a1.16,1.16,0,0,0,.65-.24Zm-3-1.68V27.7c-2-.16-3.2.44-3.2,1.46,0,.6.47,1,1.2,1A2.65,2.65,0,0,0,224.28,29.16Z"/><path d="M235.29,25.92v5.17h-1.52V26.25a1.43,1.43,0,0,0-1.48-1.55,3.27,3.27,0,0,0-2.22,1v5.35h-1.52v-5a8.69,8.69,0,0,0-.31-2.31l1-.34.51,1.29a4.23,4.23,0,0,1,3-1.37A2.45,2.45,0,0,1,235.29,25.92Z"/><path d="M244.66,30.84a2.27,2.27,0,0,1-1.36.48A1.25,1.25,0,0,1,242,30.15a3.71,3.71,0,0,1-2.74,1.17,2,2,0,0,1-2.3-2c0-1.53,1.62-2.85,4.71-2.64v-.56a1.35,1.35,0,0,0-1.5-1.5,6.4,6.4,0,0,0-2.46.62l-.42-1.13a7.47,7.47,0,0,1,3.18-.75A2.45,2.45,0,0,1,243.18,26V29.4c0,.45.16.66.48.66a1.13,1.13,0,0,0,.64-.24Zm-3-1.68V27.7c-2-.16-3.19.44-3.19,1.46,0,.6.46,1,1.2,1A2.61,2.61,0,0,0,241.66,29.16Z"/><path d="M252.06,24v7.36a3.15,3.15,0,0,1-3.47,3.29,7.53,7.53,0,0,1-3.22-.78l.49-1.32a5.84,5.84,0,0,0,2.69.73,1.76,1.76,0,0,0,2-1.9v-1.1a2.85,2.85,0,0,1-2.17,1c-1.8,0-3.29-1.38-3.29-3.81s1.52-4.16,3.92-4.16A7.19,7.19,0,0,1,252.06,24Zm-1.52,5V24.85a4.16,4.16,0,0,0-1.6-.33c-1.37,0-2.28,1.13-2.28,2.87s.9,2.67,2.13,2.67A2.29,2.29,0,0,0,250.54,29.08Z"/><path d="M260.58,27.9h-5.19a2.46,2.46,0,0,0,2.73,2.19,5.35,5.35,0,0,0,2.05-.48l.38,1a5.7,5.7,0,0,1-2.69.72,3.75,3.75,0,0,1-4.06-4c0-2.46,1.54-4,3.7-4C260.23,23.35,261.1,25.62,260.58,27.9Zm-5.19-1.16h3.9c.09-1.35-.57-2.26-1.79-2.26S255.57,25.3,255.39,26.74Z"/><path d="M273.61,25.92v5.17H272.1V26.25c0-.95-.54-1.55-1.29-1.55a2.78,2.78,0,0,0-1.94,1v5.35h-1.51V26.25c0-.95-.54-1.55-1.28-1.55a2.67,2.67,0,0,0-1.92,1v5.37h-1.51v-5a8.64,8.64,0,0,0-.32-2.31l1-.34.46,1.27a3.77,3.77,0,0,1,2.76-1.35,2.22,2.22,0,0,1,2,1.28,3.87,3.87,0,0,1,2.71-1.28A2.37,2.37,0,0,1,273.61,25.92Z"/><path d="M282.06,27.9h-5.19a2.46,2.46,0,0,0,2.73,2.19,5.35,5.35,0,0,0,2-.48l.38,1a5.7,5.7,0,0,1-2.69.72,3.75,3.75,0,0,1-4.06-4c0-2.46,1.54-4,3.7-4C281.71,23.35,282.58,25.62,282.06,27.9Zm-5.19-1.16h3.9c.09-1.35-.57-2.26-1.79-2.26S277.05,25.3,276.87,26.74Z"/><path d="M290.86,25.92v5.17h-1.51V26.25a1.44,1.44,0,0,0-1.49-1.55,3.31,3.31,0,0,0-2.22,1v5.35h-1.51v-5a8.79,8.79,0,0,0-.32-2.31l1-.34.51,1.29a4.21,4.21,0,0,1,3-1.37A2.44,2.44,0,0,1,290.86,25.92Z"/><path d="M293.46,29.2V24.73h-1.32V23.58h1.32V21.79l1.51-.55v2.34h2.51v1.15H295v4.2a.92.92,0,0,0,1,1,2.64,2.64,0,0,0,1.32-.42l.42,1.11a4.11,4.11,0,0,1-2.12.66A2,2,0,0,1,293.46,29.2Z"/><path d="M305.11,31.24,304.6,30a4.27,4.27,0,0,1-3,1.37,2.45,2.45,0,0,1-2.51-2.57V23.58h1.52v4.84A1.43,1.43,0,0,0,302.05,30a3.29,3.29,0,0,0,2.22-1V23.58h1.52v5a8.69,8.69,0,0,0,.31,2.31Z"/></g><g id="znak_fim_doubleline"><rect class="cls-1" x="15.2" y="20.63" width="16.61" height="3.44"/><rect class="cls-1" x="15.2" y="12.78" width="16.61" height="3.44"/></g><g id="zavorky_fim_doubleline"><polygon points="5.08 23.51 5.08 31.77 10.17 36.85 16.36 36.85 14.51 31.77 10.17 31.77 10.17 23.51 5.08 18.43 10.17 13.34 10.17 5.08 14.51 5.08 16.36 0 10.17 0 5.08 5.08 5.08 13.34 0 18.43 5.08 23.51"/><polygon points="36.85 31.77 32.5 31.77 30.65 36.85 36.85 36.85 41.93 31.77 41.93 23.51 47.01 18.43 41.93 13.34 41.93 5.08 36.85 0 30.65 0 32.5 5.08 36.85 5.08 36.85 13.34 41.93 18.43 36.85 23.51 36.85 31.77"/></g></svg>